<?xml version="1.0" standalone="no"?>
<!DOCTYPE svg PUBLIC "-//W3C//DTD SVG 20010904//EN"
 "http://www.w3.org/TR/2001/REC-SVG-20010904/DTD/svg10.dtd">
<svg version="1.0" xmlns="http://www.w3.org/2000/svg"
 width="32.000000pt" height="32.000000pt" viewBox="0 0 32.000000 32.000000"
 preserveAspectRatio="xMidYMid meet">

<g transform="translate(0.000000,32.000000) scale(0.100000,-0.100000)"
fill="#000000" stroke="none">
<path d="M79 277 c-64 -43 -86 -121 -51 -186 51 -94 213 -94 264 0 51 95 -21
209 -132 209 -32 0 -58 -7 -81 -23z m29 -103 c16 -5 22 -13 20 -28 -4 -28 -32
-32 -57 -7 -36 36 -21 50 37 35z m162 -4 c0 -18 -41 -51 -58 -48 -24 5 -28 45
-5 51 33 9 63 7 63 -3z"/>
</g>
</svg>
